<?xml version="1.0" standalone="no"?>
<!DOCTYPE svg PUBLIC "-//W3C//DTD SVG 20010904//EN"
 "http://www.w3.org/TR/2001/REC-SVG-20010904/DTD/svg10.dtd">
<svg version="1.0" xmlns="http://www.w3.org/2000/svg"
 width="1008.000000pt" height="1008.000000pt" viewBox="0 0 1008.000000 1008.000000"
 preserveAspectRatio="xMidYMid meet">
<metadata>
Created by potrace 1.14, written by Peter Selinger 2001-2017
</metadata>
<g transform="translate(0.000000,1008.000000) scale(0.100000,-0.100000)"
fill="#000000" stroke="none">
<path d="M2519 10078 c0 -2 -2 -21 -4 -43 -2 -22 -6 -51 -10 -65 -3 -14 -8
-38 -10 -55 -3 -16 -7 -41 -10 -55 -3 -14 -7 -36 -9 -50 -6 -35 -20 -114 -21
-120 -3 -17 -19 -108 -21 -122 -1 -10 -2 -19 -4 -20 -2 -4 -8 -35 -15 -83 -3
-22 -7 -51 -10 -65 -3 -14 -8 -41 -11 -60 -3 -19 -9 -53 -14 -74 -5 -22 -7
-43 -4 -47 2 -4 0 -10 -5 -14 -5 -3 -8 -14 -6 -25 2 -11 1 -20 -3 -20 -4 0 -8
-16 -9 -35 -2 -19 -4 -51 -5 -70 -2 -19 -6 -35 -9 -35 -4 0 -10 -26 -14 -57
-4 -32 -9 -66 -11 -78 -5 -22 -5 -25 -35 -190 -10 -60 -21 -119 -23 -130 -2
-11 -7 -40 -11 -65 -4 -25 -9 -54 -11 -65 -15 -73 -36 -203 -36 -217 1 -10 -4
-20 -9 -23 -5 -4 -7 -10 -4 -15 3 -5 1 -28 -4 -52 -6 -24 -13 -59 -16 -78 -3
-19 -17 -100 -31 -180 -15 -80 -27 -156 -29 -170 -2 -14 -6 -41 -10 -60 -4
-19 -8 -41 -8 -47 0 -7 -4 -13 -9 -13 -5 0 -6 -5 -3 -10 4 -6 2 -34 -4 -63
-12 -57 -16 -83 -31 -172 -11 -64 -13 -78 -25 -140 -4 -22 -9 -47 -10 -55 -2
-16 -15 -90 -21 -125 -10 -54 -56 -313 -60 -335 -2 -14 -6 -36 -8 -50 -3 -13
-8 -42 -11 -65 -3 -22 -8 -47 -10 -55 -2 -8 -7 -31 -10 -50 -3 -19 -7 -46 -10
-60 -3 -14 -7 -41 -10 -60 -4 -19 -10 -53 -14 -75 -5 -22 -9 -47 -9 -55 0 -8
-3 -26 -6 -40 -4 -14 -9 -41 -12 -60 -2 -19 -7 -46 -10 -60 -2 -14 -6 -36 -9
-50 -7 -37 -24 -130 -30 -170 -3 -19 -8 -42 -10 -50 -2 -8 -7 -33 -10 -55 -2
-22 -7 -51 -10 -65 -5 -24 -31 -175 -41 -235 -3 -16 -7 -37 -9 -45 -2 -8 -7
-31 -9 -50 -3 -19 -7 -46 -10 -60 -5 -28 -35 -190 -41 -230 -2 -14 -7 -36 -10
-50 -3 -14 -8 -45 -11 -70 -3 -25 -8 -53 -10 -62 -3 -10 -7 -30 -10 -45 -2
-16 -6 -38 -9 -50 -3 -12 -7 -39 -10 -60 -3 -21 -7 -49 -10 -63 -3 -14 -8 -38
-10 -55 -9 -51 -44 -248 -49 -280 -19 -100 -34 -191 -42 -240 -3 -22 -8 -43
-10 -46 -2 -4 -6 -24 -9 -45 -3 -22 -7 -48 -9 -59 -2 -11 -7 -40 -11 -65 -4
-25 -9 -54 -11 -65 -7 -35 -25 -139 -29 -165 -4 -24 -10 -57 -21 -112 -6 -29
-13 -76 -19 -123 -2 -16 -4 -30 -5 -30 -2 0 -8 -32 -14 -70 -3 -16 -7 -39 -9
-50 -6 -26 -19 -104 -23 -130 -1 -11 -3 -20 -4 -20 -1 0 -3 -11 -5 -25 -3 -26
-13 -87 -21 -124 -4 -21 -10 -52 -19 -111 -3 -16 -10 -55 -15 -85 -6 -30 -13
-73 -16 -95 -3 -22 -7 -47 -10 -55 -3 -8 -8 -32 -11 -53 -6 -45 -11 -72 -13
-72 -1 0 -3 -16 -6 -35 -5 -39 -12 -75 -14 -75 -1 0 -3 -13 -5 -30 -2 -16 -6
-41 -9 -55 -3 -13 -8 -42 -11 -65 -3 -22 -8 -47 -10 -55 -3 -8 -7 -34 -10 -57
-3 -24 -12 -74 -20 -113 -8 -39 -14 -74 -14 -78 1 -4 0 -10 -1 -14 -4 -13 -6
-21 -13 -69 -13 -78 -17 -102 -27 -154 -5 -27 -12 -63 -15 -80 -3 -16 -7 -43
-10 -60 -3 -16 -10 -55 -15 -85 -16 -91 -20 -114 -24 -136 -2 -12 -7 -39 -10
-60 -7 -39 -30 -173 -41 -229 -4 -16 -8 -47 -11 -68 -2 -21 -8 -47 -14 -56 -5
-10 -7 -20 -5 -23 3 -3 0 -29 -5 -59 -6 -30 -17 -90 -25 -134 -8 -44 -16 -89
-19 -100 -2 -11 -7 -42 -11 -70 -5 -27 -9 -52 -10 -55 0 -3 -4 -27 -9 -53 -4
-27 -9 -59 -12 -70 -2 -12 -7 -35 -10 -52 -3 -16 -14 -79 -24 -139 -11 -60
-20 -115 -20 -123 0 -11 235 -13 1346 -13 1275 0 1345 1 1343 18 -2 9 0 31 4
47 3 17 9 47 12 68 5 40 14 97 20 137 26 165 29 185 40 260 4 25 9 59 12 75 3
17 7 46 8 65 2 19 4 35 5 35 1 0 4 9 5 20 3 25 16 113 20 140 2 11 4 20 5 20
1 0 3 11 4 25 1 14 6 50 11 80 4 30 9 64 11 75 1 11 3 20 4 20 1 0 3 16 5 35
2 19 6 49 9 65 3 17 8 50 11 75 3 25 10 68 15 95 9 50 13 78 26 170 3 28 8 53
10 56 1 3 6 30 9 60 3 30 10 81 16 114 6 33 12 71 14 85 3 14 9 59 15 101 6
41 13 86 15 99 6 33 16 95 29 190 2 19 11 78 20 130 8 52 17 113 21 135 3 22
8 51 10 65 2 14 7 45 9 70 3 25 8 56 11 70 3 14 7 39 9 55 3 17 7 46 10 65 10
68 17 115 21 145 3 17 7 41 9 55 5 24 12 73 21 140 2 17 6 43 9 58 3 15 8 44
11 65 8 59 16 110 21 137 4 25 12 80 19 135 2 17 5 30 6 30 1 0 3 11 4 25 1
14 6 43 9 65 4 22 8 49 10 60 2 11 4 22 5 25 0 3 195 6 433 5 l432 0 17 -48
c10 -26 18 -51 19 -55 2 -4 4 -11 6 -17 1 -5 7 -26 13 -45 5 -19 26 -87 46
-150 20 -63 38 -122 40 -130 1 -8 12 -42 23 -75 11 -33 39 -121 62 -195 23
-74 47 -151 53 -170 6 -19 12 -37 12 -40 2 -8 65 -210 82 -260 8 -25 16 -49
17 -55 1 -5 17 -57 36 -115 18 -58 34 -109 35 -115 4 -16 55 -179 62 -195 8
-20 8 -20 17 -55 5 -16 22 -73 39 -125 17 -52 32 -99 33 -105 1 -5 39 -127 84
-270 109 -346 143 -458 143 -472 0 -7 4 -13 9 -13 4 0 8 -8 8 -18 0 -9 9 -41
19 -70 11 -29 19 -54 19 -55 -1 -2 2 -14 50 -167 16 -52 44 -142 62 -200 17
-58 34 -112 37 -120 7 -18 11 -29 16 -55 3 -11 12 -38 20 -60 8 -22 19 -56 25
-75 6 -19 25 -81 42 -137 l32 -103 1413 0 1412 0 -17 63 c-10 34 -23 74 -29
90 -6 15 -8 27 -5 27 2 0 -2 14 -11 30 -9 17 -13 30 -9 30 4 0 1 6 -5 14 -6 8
-11 18 -10 22 1 5 0 16 -4 24 -8 21 -38 118 -41 133 -2 7 -6 19 -9 27 -3 8
-15 44 -26 80 -11 36 -41 132 -67 214 -25 82 -47 154 -48 160 -1 6 -7 25 -13
41 -12 32 -44 134 -47 150 -4 19 -77 250 -92 288 -7 20 -12 37 -9 37 2 0 -3
17 -11 37 -9 20 -18 46 -20 57 -6 32 -34 120 -45 138 -5 10 -9 27 -9 38 0 11
-4 28 -9 38 -8 15 -35 98 -36 112 -1 8 -57 183 -66 205 -11 28 -29 89 -29 98
0 4 -6 23 -14 42 -8 19 -13 35 -11 35 2 0 -5 23 -16 51 -10 29 -16 56 -13 60
3 5 0 9 -6 9 -6 0 -9 4 -5 9 3 5 1 12 -5 16 -5 3 -10 16 -10 29 0 12 -3 26 -7
30 -4 3 -8 12 -9 19 -1 7 -16 58 -34 114 -17 57 -31 105 -31 108 1 3 -6 19
-14 35 -9 17 -13 30 -11 30 3 0 -2 19 -10 43 -9 23 -17 49 -19 57 -2 8 -10 34
-19 58 -8 23 -15 46 -16 50 0 4 -7 28 -15 53 -9 25 -18 54 -20 65 -2 10 -36
118 -75 239 -38 121 -72 229 -74 240 -2 11 -9 31 -14 45 -6 14 -21 59 -33 100
-11 41 -24 82 -27 90 -3 8 -6 20 -8 25 -9 33 -54 177 -68 215 -22 63 -21 68
22 88 20 9 39 19 42 22 3 3 19 12 35 20 17 8 44 25 61 37 17 13 36 23 42 23 7
0 12 4 12 9 0 5 13 14 30 21 17 7 30 16 30 21 0 5 6 9 14 9 8 0 16 3 18 8 1 4
36 33 75 65 115 91 165 139 293 277 66 72 95 105 110 126 8 12 42 57 75 100
33 44 78 106 100 139 22 33 43 62 48 63 4 2 7 7 7 12 0 5 19 41 43 82 24 40
56 100 72 133 17 33 34 63 38 66 5 3 8 8 7 10 -2 5 14 48 37 99 47 108 62 146
103 270 48 143 97 313 116 405 4 23 14 67 29 138 14 63 34 172 40 212 3 17 7
41 10 55 4 22 18 97 30 165 2 11 11 61 20 110 10 50 18 99 20 110 2 11 6 36 9
55 4 19 9 49 12 65 2 17 7 41 9 55 18 90 32 169 49 277 1 7 5 15 8 19 4 3 4
12 1 20 -3 8 0 20 6 28 6 7 9 15 6 18 -3 3 0 29 5 59 6 30 13 77 16 104 3 28
8 61 10 75 16 90 22 387 11 540 -8 104 -27 237 -42 290 -2 8 -7 30 -10 49 -3
19 -10 41 -14 50 -5 9 -10 21 -10 26 -7 44 -76 231 -92 250 -5 5 -9 17 -9 27
0 10 -4 18 -10 18 -5 0 -10 5 -10 12 0 14 -84 160 -124 214 -17 23 -38 52 -46
64 -8 13 -27 36 -42 52 -16 16 -28 30 -28 32 0 9 -140 147 -195 192 -33 27
-62 51 -65 54 -16 16 -130 90 -138 90 -6 0 -12 3 -14 8 -10 23 -243 137 -403
198 -38 14 -77 28 -85 29 -8 2 -15 4 -15 5 0 1 -7 3 -15 5 -8 2 -35 10 -60 18
-50 17 -282 75 -326 81 -16 3 -69 11 -119 20 -123 21 -206 31 -315 41 -36 3
-94 8 -130 12 -62 6 -4509 17 -4511 11z m3356 -2191 c80 -14 103 -19 140 -28
53 -13 141 -48 185 -72 19 -11 45 -25 57 -32 43 -23 161 -139 202 -199 46 -67
88 -155 120 -252 27 -84 32 -104 46 -181 32 -182 36 -509 9 -637 -3 -12 -7
-38 -9 -58 -4 -35 -12 -63 -57 -208 -65 -210 -229 -435 -396 -544 -54 -35
-170 -97 -192 -102 -3 0 -12 -3 -20 -7 -27 -11 -115 -39 -133 -42 -10 -3 -26
-6 -35 -9 -9 -3 -28 -7 -42 -10 -14 -2 -43 -7 -65 -12 -22 -4 -49 -9 -60 -10
-11 -1 -20 -3 -20 -4 0 -4 -91 -9 -234 -15 -85 -3 -156 -6 -157 -8 -1 -1 -55
0 -119 3 -64 3 -118 3 -120 0 -2 -3 -56 -3 -120 0 -64 3 -118 3 -120 0 -2 -3
-56 -3 -120 0 -64 3 -118 3 -120 0 -2 -3 -49 -4 -105 -2 l-102 3 7 46 c3 24 8
52 9 61 6 32 18 117 21 147 2 17 6 44 9 60 19 108 27 165 31 198 3 35 12 91
21 142 2 11 7 40 10 65 10 77 12 88 18 117 3 15 8 52 11 82 4 30 9 63 11 75 2
12 6 32 8 46 3 14 8 45 11 70 3 25 7 56 10 70 2 14 6 45 9 70 3 25 7 54 10 65
2 11 7 40 10 65 3 25 8 54 10 65 2 11 7 42 10 68 4 27 9 56 10 65 2 10 7 40
10 67 4 28 9 64 12 80 2 17 6 44 8 60 3 17 8 48 12 70 4 22 7 55 8 73 0 17 4
32 9 32 4 0 6 3 3 8 -2 4 -1 28 4 52 5 25 11 70 15 100 3 30 8 62 10 70 5 20
18 110 19 133 0 9 3 17 7 17 3 0 4 10 2 23 -2 12 0 33 5 47 l10 26 593 -2
c327 -1 608 -4 624 -7z"/>
</g>
</svg>
