<svg width="86" height="50" viewBox="0 0 86 50" fill="none" xmlns="http://www.w3.org/2000/svg">
<path d="M10.464 7.72C12.288 7.72 13.584 8.12 14.352 8.92C14.928 9.528 15.216 10.296 15.216 11.224C15.216 11.544 15.184 11.88 15.12 12.232L14.784 14.104C14.592 15.144 14.256 15.984 13.776 16.624C13.312 17.264 12.792 17.72 12.216 17.992L14.4 25H9.552L7.536 18.544H6.048L5.064 25H0.456L3.504 7.72H10.464ZM8.952 11.464H7.152L6.528 15.64H8.208C9.056 15.64 9.664 15.44 10.032 15.04C10.4 14.624 10.584 14.08 10.584 13.408C10.584 12.112 10.04 11.464 8.952 11.464ZM25.494 25H13.446L16.494 7.72H28.542L27.87 11.464H20.142L19.59 14.704H25.974L25.302 18.448H18.918L18.438 21.256H26.166L25.494 25ZM35.2665 7.72C37.3625 7.72 38.8585 8.248 39.7545 9.304C40.4105 10.104 40.7385 11.104 40.7385 12.304C40.7385 12.736 40.6985 13.192 40.6185 13.672L39.6825 19.024C39.3625 20.832 38.5785 22.28 37.3305 23.368C36.0825 24.456 34.4665 25 32.4825 25H25.4985L28.5465 7.72H35.2665ZM33.7545 11.464H32.1945L30.4905 21.256H32.7705C33.5225 21.256 34.1065 21.056 34.5225 20.656C34.9545 20.24 35.2505 19.568 35.4105 18.64L36.1065 14.704C36.1705 14.352 36.2025 14.032 36.2025 13.744C36.2025 12.224 35.3865 11.464 33.7545 11.464Z" fill="#FF472E"/>
<path d="M20.568 36.808H17.712L16.776 42.064H12.456L15.504 24.784H22.824C24.632 24.784 25.92 25.2 26.688 26.032C27.248 26.672 27.528 27.488 27.528 28.48C27.528 28.816 27.496 29.168 27.432 29.536L26.952 32.248C26.712 33.576 26.008 34.672 24.84 35.536C23.672 36.384 22.248 36.808 20.568 36.808ZM21.312 28.528H19.152L18.36 33.064H20.496C21.808 33.064 22.568 32.48 22.776 31.312L22.944 30.328C22.976 30.184 22.992 29.992 22.992 29.752C22.992 29.512 22.872 29.248 22.632 28.96C22.392 28.672 21.952 28.528 21.312 28.528ZM33.2166 42.064L33.3606 38.296H29.3526L28.1766 42.064H23.5926L29.7606 24.784H37.6806L37.7766 42.064H33.2166ZM32.2326 28.984L30.3366 35.08H33.4806L33.7446 28.984H32.2326ZM43.3596 42.4C41.0716 42.4 39.4876 41.904 38.6076 40.912C37.9996 40.208 37.6956 39.224 37.6956 37.96C37.6956 37.416 37.7516 36.832 37.8636 36.208L38.8476 30.688C39.5676 26.64 42.1676 24.616 46.6476 24.616C48.5036 24.616 49.9116 25.016 50.8716 25.816C51.8316 26.6 52.3116 27.68 52.3116 29.056C52.3116 29.696 52.2156 30.336 52.0236 30.976C51.8476 31.6 51.6716 32.064 51.4956 32.368L51.2316 32.848H46.9836C47.5116 32.24 47.7756 31.376 47.7756 30.256C47.7756 29.664 47.6236 29.2 47.3196 28.864C47.0156 28.512 46.5676 28.336 45.9756 28.336C44.3596 28.336 43.3996 29.232 43.0956 31.024L42.2556 35.872C42.1756 36.288 42.1356 36.696 42.1356 37.096C42.1356 38.152 42.7676 38.68 44.0316 38.68C45.5516 38.68 46.4636 37.824 46.7676 36.112H51.0876L50.9676 36.808C50.3276 40.536 47.7916 42.4 43.3596 42.4ZM62.1146 42.064H50.0666L53.1146 24.784H65.1626L64.4906 28.528H56.7626L56.2106 31.768H62.5946L61.9226 35.512H55.5386L55.0586 38.32H62.7866L62.1146 42.064Z" fill="black"/>
<path d="M64.7888 40.672C64.7888 39.648 65.0128 38.904 65.4608 38.44C65.9088 37.96 66.6208 37.72 67.5968 37.72C68.9408 37.72 69.6128 38.312 69.6128 39.496C69.6128 40.504 69.3808 41.24 68.9168 41.704C68.4688 42.168 67.7568 42.4 66.7808 42.4C65.4528 42.4 64.7888 41.824 64.7888 40.672Z" fill="#FF472E"/>
</svg>
